<?xml version="1.0" standalone="no"?>
<!DOCTYPE svg PUBLIC "-//W3C//DTD SVG 20010904//EN"
 "http://www.w3.org/TR/2001/REC-SVG-20010904/DTD/svg10.dtd">
<svg version="1.0" xmlns="http://www.w3.org/2000/svg"
 width="244.000000pt" height="244.000000pt" viewBox="0 0 244.000000 244.000000"
 preserveAspectRatio="xMidYMid meet">

<g transform="translate(0.000000,244.000000) scale(0.100000,-0.100000)"
fill="#000000" stroke="none">
<path d="M1170 2404 l-35 -14 35 6 c36 6 46 11 39 18 -2 2 -20 -3 -39 -10z"/>
<path d="M1210 2380 c19 -13 30 -13 30 0 0 6 -10 10 -22 10 -19 0 -20 -2 -8
-10z"/>
<path d="M1145 2360 c-3 -5 -1 -10 4 -10 6 0 11 5 11 10 0 6 -2 10 -4 10 -3 0
-8 -4 -11 -10z"/>
<path d="M1260 2366 c0 -2 12 -12 28 -21 l27 -18 -19 21 c-17 20 -36 29 -36
18z"/>
<path d="M990 2350 c0 -5 5 -10 11 -10 5 0 7 5 4 10 -3 6 -8 10 -11 10 -2 0
-4 -4 -4 -10z"/>
<path d="M1330 2350 c0 -5 5 -10 11 -10 5 0 7 5 4 10 -3 6 -8 10 -11 10 -2 0
-4 -4 -4 -10z"/>
<path d="M1170 2318 c-19 -12 -55 -32 -79 -45 -43 -25 -43 -25 -20 -37 13 -7
23 -18 21 -25 -1 -7 3 -11 10 -8 16 5 48 -10 48 -23 0 -13 -43 -13 -56 0 -6 6
-27 19 -47 29 -30 15 -40 16 -59 6 -13 -6 -68 -36 -123 -65 -55 -29 -149 -81
-210 -115 -60 -34 -126 -70 -145 -80 l-35 -18 25 -11 c14 -6 30 -14 35 -19 6
-4 18 -13 28 -20 16 -11 17 -15 4 -25 -11 -10 -19 -8 -38 6 -13 10 -42 23 -63
30 -36 10 -44 9 -105 -22 -36 -18 -81 -42 -98 -52 l-33 -19 0 -197 c0 -187 1
-198 20 -208 12 -7 20 -21 20 -37 0 -21 -3 -24 -12 -15 -19 19 -28 14 -28 -17
0 -20 6 -30 20 -34 13 -3 20 -14 20 -30 0 -14 5 -29 10 -32 6 -4 9 -14 8 -22
-2 -9 3 -18 10 -20 8 -3 10 1 6 11 -9 23 23 10 36 -15 14 -25 12 -33 -4 -20
-11 9 -15 5 -20 -20 -4 -23 -10 -30 -21 -25 -10 3 -13 2 -10 -5 4 -5 15 -7 26
-4 11 4 29 -1 43 -12 25 -18 37 -41 15 -27 -7 4 -10 1 -7 -6 6 -20 28 -24 28
-5 0 12 4 14 19 5 11 -5 22 -10 26 -10 3 0 5 33 3 72 l-3 73 -41 22 c-35 19
-40 27 -36 48 3 20 7 23 18 14 11 -9 14 -8 14 4 0 26 17 28 54 6 l36 -21 0
-74 c0 -63 3 -75 20 -84 16 -8 20 -21 20 -58 0 -36 5 -50 20 -60 15 -9 20 -23
20 -57 0 -25 -4 -45 -8 -45 -17 0 -41 26 -44 49 -4 31 -28 40 -28 11 0 -12 -5
-18 -10 -15 -6 3 -10 -3 -10 -14 0 -11 5 -23 10 -26 15 -10 13 -105 -3 -105
-20 0 -37 22 -37 47 0 14 -6 23 -15 23 -8 0 -15 -7 -15 -16 0 -11 -5 -14 -16
-10 -9 3 -18 6 -20 6 -2 0 -4 13 -4 29 0 23 -8 34 -36 50 -20 12 -39 19 -42
16 -3 -3 -7 -25 -9 -50 -4 -43 -4 -44 43 -64 l46 -21 -6 -45 c-6 -37 -4 -47
13 -62 12 -10 21 -28 21 -40 0 -15 9 -27 24 -34 17 -8 22 -17 18 -31 -3 -11
-10 -17 -18 -14 -9 3 -14 -1 -14 -12 0 -11 21 -30 52 -49 90 -52 207 -113 218
-113 6 0 10 26 10 65 0 60 9 80 25 55 9 -15 28 -12 22 4 -8 20 3 27 24 15 15
-7 21 -6 25 6 5 13 9 10 20 -11 8 -14 14 -37 14 -50 0 -15 6 -24 15 -24 8 0
15 -5 15 -10 0 -6 11 -16 25 -22 16 -7 25 -19 25 -35 0 -12 -2 -23 -5 -23 -2
0 -33 16 -69 35 -52 29 -63 40 -59 55 4 13 0 20 -9 20 -11 0 -14 -7 -10 -25 2
-14 8 -25 13 -25 5 0 9 -7 9 -15 0 -9 -6 -12 -15 -9 -11 5 -15 -1 -15 -20 0
-21 8 -31 33 -42 17 -8 61 -32 97 -54 75 -45 80 -46 80 -22 1 16 2 15 15 -2 8
-10 12 -22 10 -26 -5 -7 111 -70 128 -70 5 0 23 -11 40 -24 18 -13 47 -31 66
-41 33 -16 33 -16 90 18 31 19 99 57 151 85 52 28 127 68 165 89 l70 38 2 69
c2 54 7 73 22 88 11 10 18 24 15 32 -3 8 7 23 25 35 16 12 33 30 36 41 10 32
25 23 25 -15 0 -19 2 -35 5 -35 3 0 24 9 46 21 l40 20 -3 -28 c-3 -24 -14 -33
-74 -63 -46 -22 -70 -40 -67 -48 3 -7 -2 -21 -10 -30 -13 -15 -20 -52 -10 -52
15 0 43 23 43 35 0 7 5 17 12 21 8 5 9 2 5 -9 -10 -26 11 -20 83 22 38 21 65
44 65 53 0 24 15 35 25 18 7 -12 15 -11 50 6 23 11 43 28 46 41 3 11 16 31 30
44 13 12 21 26 18 31 -3 5 9 23 27 39 l34 30 8 -28 c5 -15 9 -34 9 -40 1 -7 5
-13 9 -13 19 0 26 111 9 154 -6 17 -6 26 0 26 11 0 13 33 3 69 -5 21 -7 20
-19 -15 -9 -26 -10 -43 -3 -56 6 -11 8 -24 5 -31 -2 -7 -5 -4 -5 6 -1 22 -23
17 -87 -21 -29 -18 -43 -34 -44 -48 0 -12 -12 -29 -26 -39 -14 -9 -23 -22 -21
-29 6 -16 -1 -28 -33 -49 -34 -24 -38 -22 -42 21 -2 29 -7 37 -23 37 -13 0
-20 6 -19 18 2 18 -11 23 -21 8 -5 -9 -42 -7 -52 3 -2 2 8 16 22 30 14 14 24
30 21 35 -3 4 -10 21 -16 36 -9 25 -13 27 -25 14 -8 -8 -16 -32 -19 -54 -2
-22 -5 -42 -5 -45 -1 -3 -5 1 -10 9 -15 23 -33 1 -27 -33 7 -38 1 -48 -41 -70
l-32 -16 -3 48 c-3 41 -6 47 -23 44 -20 -4 -19 -3 1 20 26 29 27 57 2 55 -11
-1 -17 -8 -16 -18 4 -22 -20 -49 -43 -49 -11 0 -19 -4 -19 -10 0 -5 -4 -10
-10 -10 -5 0 -10 7 -10 16 0 12 -6 15 -24 10 -20 -5 -25 -2 -28 15 -3 19 -5
19 -37 -10 -19 -17 -31 -34 -28 -38 4 -3 7 -1 7 5 0 7 5 12 10 12 6 0 10 -4
10 -8 0 -13 -68 -42 -85 -36 -18 7 -20 24 -2 24 6 0 22 10 33 23 22 23 22 24
14 257 -1 23 5 39 17 48 17 12 18 8 23 -55 4 -58 8 -68 23 -65 12 2 17 -4 18
-20 3 -51 4 -53 27 -50 20 3 22 -1 22 -47 0 -28 4 -51 10 -51 13 0 35 42 31
63 -3 19 15 24 22 5 2 -7 8 12 13 42 7 40 14 56 27 58 12 2 17 -3 17 -18 0
-17 4 -20 20 -15 14 5 20 2 20 -9 0 -21 0 -21 65 11 36 18 55 33 55 45 0 22
-12 23 -49 3 -30 -15 -41 -11 -41 15 0 9 -15 24 -34 32 -32 16 -35 16 -57 -5
-24 -23 -89 -60 -94 -55 -2 2 -5 19 -7 38 -3 26 -9 35 -24 35 -15 0 -18 6 -16
25 2 14 8 26 12 28 5 2 6 10 3 18 -3 8 0 14 6 14 6 0 11 -4 11 -10 0 -5 5 -10
10 -10 6 0 10 9 10 20 0 21 15 27 25 10 3 -5 12 -7 20 -4 8 4 18 -1 21 -10 3
-9 15 -16 25 -16 12 0 19 -7 19 -18 0 -10 3 -22 7 -25 13 -13 33 16 33 48 0
28 13 45 36 45 2 0 4 -20 4 -45 0 -25 2 -45 4 -45 3 0 31 15 63 34 84 48 103
53 103 24 0 -17 -11 -28 -43 -43 -29 -14 -43 -27 -45 -44 -3 -21 -1 -23 22
-17 19 5 26 3 26 -9 0 -8 4 -15 8 -15 15 0 32 24 32 45 0 14 10 26 25 33 15 7
25 20 25 33 0 15 5 19 15 15 12 -4 15 3 15 34 0 29 5 43 20 52 11 7 20 24 20
38 0 17 9 30 31 43 40 22 49 22 49 -4 0 -16 4 -19 20 -14 16 5 20 2 20 -15 0
-15 5 -20 18 -18 16 3 17 28 20 328 l2 326 -57 29 c-32 16 -73 39 -92 52 -19
13 -63 38 -99 55 -52 26 -65 29 -72 17 -7 -11 -12 -11 -22 -1 -9 9 -9 12 1 12
20 0 -5 27 -42 46 -29 15 -92 11 -82 -6 3 -5 -1 -10 -7 -13 -15 -5 23 -47 42
-47 12 0 40 -24 40 -35 0 -3 -4 -3 -10 0 -5 3 -10 2 -10 -3 0 -6 7 -12 15 -16
22 -8 18 -20 -16 -45 -29 -22 -32 -22 -64 -7 -18 9 -41 16 -52 16 -16 1 -16 3
5 20 12 10 27 20 33 22 5 2 7 11 4 20 -5 13 -15 15 -42 11 -28 -5 -35 -3 -31
8 3 8 11 14 19 14 18 0 59 43 59 62 0 7 -12 19 -26 25 -23 11 -24 13 -9 24 15
11 13 14 -17 30 -79 40 -244 128 -253 134 -13 10 -215 120 -218 119 -1 0 -18
-10 -37 -21z m111 -148 c5 0 9 -7 9 -15 0 -18 -23 -19 -52 -4 -17 9 -18 13 -7
20 8 5 20 7 27 4 8 -3 18 -5 23 -5z m83 -45 c11 -8 29 -15 40 -15 18 0 18 -2
-7 -28 -30 -31 -34 -44 -13 -36 8 3 27 -1 43 -9 l28 -15 -29 -12 c-16 -6 -35
-18 -41 -27 -11 -15 -13 -15 -24 5 -6 12 -17 22 -24 22 -7 0 -25 11 -42 25
-26 21 -27 24 -10 25 20 1 20 1 1 15 -19 15 -19 15 4 40 27 28 46 31 74 10z
m-325 -99 c7 -8 8 -16 4 -19 -14 -7 -74 13 -68 23 9 15 51 12 64 -4z m191 -25
c0 -11 -26 -22 -34 -14 -12 12 -5 23 14 23 11 0 20 -4 20 -9z m-85 -10 c-3 -5
-1 -12 5 -16 17 -10 11 -25 -12 -34 -17 -6 -30 -2 -55 17 -17 14 -29 30 -27
34 3 4 25 8 50 8 25 0 43 -4 39 -9z m231 -56 c4 -8 13 -15 21 -15 8 0 11 -4 8
-10 -10 -16 -44 -11 -64 9 -14 14 -16 21 -8 25 23 9 38 6 43 -9z m-467 -104
c11 -7 9 -10 -8 -16 -24 -7 -44 2 -36 16 8 11 26 11 44 0z m947 -25 c18 -14
18 -15 1 -22 -24 -9 -73 16 -55 28 19 11 32 10 54 -6z m-404 -6 c6 0 8 -6 5
-14 -4 -10 8 -15 45 -20 43 -6 78 -23 78 -39 0 -11 -45 -15 -56 -6 -7 6 -22 8
-33 4 -11 -3 -34 1 -50 10 -17 8 -34 16 -38 16 -5 0 -15 5 -23 10 -13 8 -11
12 9 29 13 12 31 18 38 15 8 -3 19 -5 25 -5z m-674 -15 c30 6 123 -23 124 -40
1 -5 -11 -18 -25 -29 -22 -16 -30 -18 -52 -8 -15 7 -23 17 -19 23 3 6 -1 10
-12 9 -34 -4 -49 0 -73 21 -20 17 -22 22 -11 29 9 5 19 5 27 -1 7 -6 25 -8 41
-4z m471 -12 c36 -21 41 -39 9 -28 -13 3 -31 8 -40 9 -23 3 -32 12 -23 25 9
15 18 14 54 -6z m71 -4 c0 -11 -27 -12 -34 0 -3 4 -3 11 0 14 8 8 34 -3 34
-14z m710 -4 c28 -14 50 -29 50 -34 0 -19 -34 -21 -59 -4 -14 10 -39 23 -54
30 -28 13 -29 33 -1 33 8 0 37 -11 64 -25z m-1008 -4 c13 -5 31 -12 42 -15 14
-5 16 -9 7 -20 -10 -12 -18 -12 -50 2 -23 10 -37 22 -34 29 6 15 6 15 35 4z
m-561 -47 c11 -14 9 -15 -16 -12 -16 1 -30 9 -33 16 -6 18 33 15 49 -4z m115
-72 c-11 -12 -19 -11 -47 3 -19 10 -40 22 -47 28 -28 22 20 24 64 3 35 -17 40
-23 30 -34z m816 35 c-12 -6 -25 -7 -29 -3 -11 10 18 25 35 18 13 -4 11 -8 -6
-15z m378 -59 c0 -5 8 -7 18 -4 22 7 47 -8 38 -23 -11 -17 -40 -13 -67 8 -13
10 -33 20 -43 22 -26 5 -32 26 -9 31 20 4 63 -19 63 -34z m-839 -28 c20 -16
21 -19 7 -20 -10 0 -18 -4 -18 -10 0 -5 -7 -10 -16 -10 -10 0 -14 6 -11 14 4
9 -2 17 -14 21 -10 4 -19 11 -19 16 0 16 47 10 71 -11z m256 -42 c29 -21 40
-41 20 -39 -4 1 -26 1 -49 1 -23 0 -38 3 -35 7 4 3 2 12 -4 19 -6 7 -8 18 -4
24 10 16 36 12 72 -12z m-227 -58 c29 -25 32 -30 15 -30 -19 0 -18 -2 4 -19
22 -17 23 -19 6 -29 -21 -11 -30 -6 -78 46 -21 22 -37 30 -49 26 -23 -7 -23 5
0 22 28 22 65 16 102 -16z m130 25 c0 -2 -9 -9 -20 -15 -24 -13 -50 -2 -29 11
15 9 49 12 49 4z m181 -16 c23 -12 16 -29 -11 -29 -21 0 -34 15 -25 30 8 13
12 12 36 -1z m-846 -19 c3 -5 1 -10 -4 -10 -6 0 -11 5 -11 10 0 6 2 10 4 10 3
0 8 -4 11 -10z m81 -57 c-7 -7 -26 7 -26 19 0 6 6 6 15 -2 9 -7 13 -15 11 -17z
m1622 -95 c-4 -29 -38 -38 -38 -10 0 22 8 32 27 32 9 0 13 -8 11 -22z m-954 1
c14 -7 23 -15 21 -19 -3 -4 9 -10 26 -14 17 -3 28 -10 24 -16 -9 -15 -41 -12
-55 4 -6 8 -27 20 -46 26 -19 7 -32 16 -29 21 8 12 29 11 59 -2z m-501 -65 c9
-9 -4 -35 -14 -28 -5 3 -9 12 -9 20 0 14 12 19 23 8z m1111 -37 c-15 -9 -34
-2 -34 13 0 13 34 17 42 6 4 -6 1 -14 -8 -19z m-1210 -8 c13 -6 22 -17 20 -24
-3 -7 6 -22 20 -33 14 -11 26 -29 26 -39 0 -11 9 -28 20 -38 23 -20 26 -45 8
-63 -9 -9 -9 -12 2 -12 9 0 11 -3 4 -10 -7 -7 -23 -4 -47 9 -60 31 -67 40 -67
88 0 36 -4 46 -20 50 -20 5 -26 35 -14 67 7 19 15 20 48 5z m201 -11 c21 -9
37 -48 19 -48 -15 0 -64 42 -59 51 8 11 9 11 40 -3z m975 8 c0 -3 -4 -8 -10
-11 -5 -3 -10 -1 -10 4 0 6 5 11 10 11 6 0 10 -2 10 -4z m-80 -30 c0 -8 -4
-18 -10 -21 -5 -3 -10 3 -10 14 0 12 5 21 10 21 6 0 10 -6 10 -14z m-1286 -62
c9 -22 8 -24 -9 -18 -8 4 -15 12 -15 20 0 19 16 18 24 -2z m583 -38 c0 -8 -6
-12 -15 -9 -11 5 -11 7 0 14 7 5 13 9 14 9 0 0 1 -6 1 -14z m-210 -58 c4 -7 8
-33 8 -57 0 -42 1 -44 60 -77 33 -19 70 -39 83 -46 13 -7 22 -20 22 -35 0 -28
-7 -29 -40 -3 -33 25 -38 25 -42 -4 l-3 -25 -40 28 c-32 22 -40 33 -40 59 -1
28 -24 71 -26 46 0 -5 -7 11 -14 36 -9 27 -11 46 -5 48 6 2 10 12 10 23 0 22
15 25 27 7z m-75 -122 c2 -21 10 -34 26 -41 14 -6 22 -18 22 -35 0 -21 11 -32
60 -58 47 -26 60 -30 60 -18 0 18 2 19 24 10 9 -3 16 -14 16 -25 0 -10 9 -23
20 -29 17 -9 20 -8 20 10 0 17 4 19 25 14 15 -4 25 -2 25 5 0 6 6 8 14 5 10
-4 16 2 18 18 2 15 9 22 21 20 10 -2 17 3 17 14 0 13 6 15 27 9 40 -10 53 -24
53 -55 0 -19 7 -30 25 -38 14 -7 25 -20 25 -31 0 -18 -1 -18 -36 0 -44 22 -54
18 -54 -24 0 -24 -3 -28 -10 -17 -6 9 -10 10 -10 3 0 -6 14 -25 30 -41 17 -17
30 -37 30 -44 0 -17 20 -38 36 -38 6 0 14 9 17 20 3 13 10 18 21 14 13 -5 16
-22 16 -86 0 -76 -1 -79 -21 -73 -19 6 -20 4 -14 -24 10 -48 -1 -55 -48 -28
-66 38 -87 42 -87 17 0 -18 -3 -19 -20 -10 -17 9 -20 8 -20 -10 0 -25 -7 -25
-46 -1 -25 15 -31 26 -32 56 -1 23 -10 47 -22 60 -11 12 -20 31 -20 42 0 12
-14 30 -35 44 -40 27 -49 61 -14 52 21 -6 21 -4 14 43 -6 45 -17 63 -38 64 -4
0 -7 -8 -5 -17 2 -14 -3 -17 -21 -15 -17 1 -22 -2 -18 -13 4 -8 2 -17 -3 -20
-5 -3 -7 -12 -3 -20 7 -21 -10 -19 -52 6 -35 21 -37 24 -33 70 2 37 -1 50 -14
58 -25 16 -28 14 -28 -14 0 -28 -3 -29 -31 -15 -11 6 -19 21 -19 35 0 28 3 29
28 16 28 -15 63 18 51 47 -9 23 -31 31 -26 10 2 -15 -46 -13 -51 2 -2 6 -10
10 -18 10 -8 0 -14 6 -14 14 0 19 17 30 22 14 3 -9 9 -8 22 5 10 9 13 17 7 17
-6 0 -11 4 -11 9 0 5 9 7 20 4 16 -4 20 0 20 20 0 39 38 25 42 -17z m446 -4
c4 -24 -7 -29 -26 -10 -18 18 -15 40 6 36 9 -2 18 -13 20 -26z m262 -22 c0 -5
-4 -10 -10 -10 -5 0 -10 5 -10 10 0 6 5 10 10 10 6 0 10 -4 10 -10z m-836 -73
c13 -10 16 -21 10 -55 -4 -23 -11 -42 -16 -42 -17 0 -68 44 -68 58 0 12 3 12
15 2 13 -11 16 -8 21 19 7 34 12 37 38 18z m34 -119 c7 -7 12 -22 12 -35 0
-12 9 -27 20 -33 12 -6 20 -21 20 -36 0 -21 -4 -24 -20 -19 -16 5 -20 2 -20
-16 l0 -22 -32 25 c-38 29 -46 48 -22 48 14 0 16 7 11 44 -8 54 4 71 31 44z
m1052 -58 c0 -16 -26 -40 -44 -40 -12 0 -6 49 7 53 25 11 37 6 37 -13z m-422
-18 c5 -31 -24 -29 -31 3 -3 20 -1 25 12 23 9 -2 17 -13 19 -26z m252 -46 c0
-40 -4 -55 -16 -60 -11 -4 -18 1 -21 14 -3 11 -11 20 -18 20 -19 0 -38 -28
-31 -45 3 -9 -3 -19 -14 -25 -17 -9 -20 -7 -20 15 0 14 5 25 11 25 5 0 16 15
24 34 8 19 23 37 34 41 10 3 22 12 25 20 12 33 26 12 26 -39z m86 -1 c-2 -30
-10 -51 -22 -59 -21 -16 -44 -10 -44 11 0 9 6 13 14 10 11 -4 14 1 12 21 -3
34 10 62 29 62 12 0 14 -10 11 -45z m-396 25 c0 -5 -4 -10 -10 -10 -5 0 -10 5
-10 10 0 6 5 10 10 10 6 0 10 -4 10 -10z m17 -12 c-3 -8 -6 -5 -6 6 -1 11 2
17 5 13 3 -3 4 -12 1 -19z m423 -63 c0 -9 7 -15 17 -13 25 4 29 -31 5 -48 -11
-7 -22 -26 -25 -42 -5 -24 -12 -31 -37 -34 -38 -6 -45 3 -19 26 17 14 19 24
14 57 -5 26 -3 45 5 54 16 20 40 19 40 0z m-800 -156 c0 -4 -7 -6 -15 -3 -8 4
-15 10 -15 15 0 4 7 6 15 3 8 -4 15 -10 15 -15z m587 -114 c-4 -8 -11 -15 -17
-15 -7 0 -7 6 0 21 13 23 26 19 17 -6z m-224 -19 c19 -15 23 -51 5 -62 -7 -5
-8 -3 -3 6 6 10 4 12 -9 7 -20 -8 -56 8 -56 25 0 7 4 7 14 -1 17 -14 29 0 20
23 -7 19 5 20 29 2z"/>
<path d="M570 1170 c0 -5 5 -10 11 -10 5 0 7 5 4 10 -3 6 -8 10 -11 10 -2 0
-4 -4 -4 -10z"/>
<path d="M700 752 c0 -5 7 -9 15 -9 8 0 12 4 9 9 -3 4 -9 8 -15 8 -5 0 -9 -4
-9 -8z"/>
<path d="M730 680 c0 -5 5 -10 10 -10 6 0 10 5 10 10 0 6 -4 10 -10 10 -5 0
-10 -4 -10 -10z"/>
<path d="M940 618 c0 -6 -12 -8 -30 -4 -22 4 -30 2 -30 -8 0 -49 43 -65 54
-20 6 22 30 32 26 10 -1 -4 10 -17 24 -30 32 -27 36 -60 6 -51 -14 5 -20 2
-20 -10 0 -10 -7 -15 -17 -13 -29 5 -28 -36 1 -50 29 -13 41 -5 23 16 -11 13
-9 14 10 1 16 -9 19 -16 10 -21 -9 -5 -6 -11 8 -22 33 -25 45 -20 42 19 -1 23
-6 34 -14 30 -7 -2 -13 1 -13 7 0 7 13 9 35 5 l35 -6 0 44 c0 34 -5 47 -20 55
-12 6 -20 21 -20 35 0 25 -25 36 -32 14 -3 -8 -14 -8 -41 -1 -26 7 -37 7 -37
0z"/>
<path d="M1580 2329 c0 -5 -6 -7 -12 -3 -7 4 -10 3 -5 -1 4 -5 0 -19 -8 -32
-9 -13 -12 -23 -8 -23 5 0 18 16 31 35 12 19 18 35 12 35 -5 0 -10 -5 -10 -11z"/>
<path d="M1060 2320 c0 -5 5 -10 10 -10 6 0 10 5 10 10 0 6 -4 10 -10 10 -5 0
-10 -4 -10 -10z"/>
<path d="M1355 2320 c-11 -5 -17 -9 -13 -9 3 -1 13 -3 21 -6 8 -4 14 0 14 10
0 8 -1 15 -1 14 -1 0 -10 -4 -21 -9z"/>
<path d="M1009 2283 c-13 -15 -12 -15 9 -4 23 12 28 21 13 21 -5 0 -15 -7 -22
-17z"/>
<path d="M877 2249 c7 -7 15 -10 18 -7 3 3 -2 9 -12 12 -14 6 -15 5 -6 -5z"/>
<path d="M910 2235 c-19 -14 -31 -25 -26 -25 13 0 66 34 66 42 0 11 0 11 -40
-17z"/>
<path d="M1475 2250 c-3 -5 -2 -10 4 -10 5 0 13 5 16 10 3 6 2 10 -4 10 -5 0
-13 -4 -16 -10z"/>
<path d="M1519 2243 c-13 -16 -12 -17 4 -4 9 7 17 15 17 17 0 8 -8 3 -21 -13z"/>
<path d="M715 2183 c27 -7 46 -23 39 -34 -3 -5 0 -9 5 -9 6 0 11 5 11 11 0 19
-28 39 -52 38 -20 -1 -21 -2 -3 -6z"/>
<path d="M806 2175 c-11 -8 -15 -15 -9 -15 6 0 16 7 23 15 16 19 11 19 -14 0z"/>
<path d="M590 2170 c0 -6 11 -8 28 -4 39 10 40 14 4 14 -18 0 -32 -5 -32 -10z"/>
<path d="M1610 2166 c14 -8 28 -12 33 -9 11 7 7 9 -28 17 l-30 6 25 -14z"/>
<path d="M520 2160 c-13 -8 -12 -10 3 -10 9 0 17 5 17 10 0 12 -1 12 -20 0z"/>
<path d="M1666 2153 c-6 -14 -5 -15 5 -6 7 7 10 15 7 18 -3 3 -9 -2 -12 -12z"/>
<path d="M1695 2160 c4 -6 11 -8 16 -5 14 9 11 15 -7 15 -8 0 -12 -5 -9 -10z"/>
<path d="M1740 2160 c0 -5 5 -10 10 -10 6 0 10 5 10 10 0 6 -4 10 -10 10 -5 0
-10 -4 -10 -10z"/>
<path d="M1680 2136 c0 -2 7 -7 16 -10 8 -3 12 -2 9 4 -6 10 -25 14 -25 6z"/>
<path d="M1965 2130 c2 -4 14 -10 26 -13 16 -4 19 -3 11 5 -14 14 -45 20 -37
8z"/>
<path d="M1760 2096 c0 -2 8 -10 18 -17 15 -13 16 -12 3 4 -13 16 -21 21 -21
13z"/>
<path d="M1820 2065 c-9 -10 -9 -15 -1 -15 6 0 11 4 11 9 0 5 8 12 18 14 14 4
14 5 1 6 -9 0 -22 -6 -29 -14z"/>
<path d="M1852 2051 c-11 -7 -10 -9 3 -14 9 -4 14 -3 10 2 -3 5 1 12 7 14 7 3
9 6 3 6 -5 0 -16 -3 -23 -8z"/>
<path d="M1740 2040 c8 -5 20 -10 25 -10 6 0 3 5 -5 10 -8 5 -19 10 -25 10 -5
0 -3 -5 5 -10z"/>
<path d="M337 2032 c-18 -4 -18 -4 0 -18 23 -17 33 -17 33 0 0 18 -10 24 -33
18z"/>
<path d="M1891 2017 c2 -2 20 -11 39 -20 l35 -17 -24 20 c-13 11 -30 20 -39
20 -8 0 -13 -2 -11 -3z"/>
<path d="M2160 1949 c0 -5 5 -7 10 -4 6 3 10 8 10 11 0 2 -4 4 -10 4 -5 0 -10
-5 -10 -11z"/>
<path d="M2050 1930 c0 -5 7 -10 16 -10 8 0 12 5 9 10 -3 6 -10 10 -16 10 -5
0 -9 -4 -9 -10z"/>
<path d="M2103 1914 c0 -16 13 -19 21 -5 3 5 0 11 -7 14 -8 3 -14 -1 -14 -9z"/>
<path d="M2279 1723 c-11 -15 -11 -16 1 -5 21 18 30 15 30 -13 0 -15 6 -25 14
-25 12 0 12 4 0 30 -18 35 -26 37 -45 13z"/>
<path d="M181 1674 c0 -11 3 -14 6 -6 3 7 2 16 -1 19 -3 4 -6 -2 -5 -13z"/>
<path d="M101 1624 c0 -11 3 -14 6 -6 3 7 2 16 -1 19 -3 4 -6 -2 -5 -13z"/>
<path d="M2252 1615 c0 -16 2 -22 5 -12 2 9 2 23 0 30 -3 6 -5 -1 -5 -18z"/>
<path d="M168 1613 c7 -3 16 -2 19 1 4 3 -2 6 -13 5 -11 0 -14 -3 -6 -6z"/>
<path d="M105 1590 c-3 -5 -2 -10 4 -10 5 0 13 5 16 10 3 6 2 10 -4 10 -5 0
-13 -4 -16 -10z"/>
<path d="M108 1543 c6 -2 18 -2 25 0 6 3 1 5 -13 5 -14 0 -19 -2 -12 -5z"/>
<path d="M2254 1355 c0 -104 2 -146 3 -92 2 54 2 139 0 190 -1 51 -3 7 -3 -98z"/>
<path d="M170 1300 c0 -5 5 -10 10 -10 6 0 10 5 10 10 0 6 -4 10 -10 10 -5 0
-10 -4 -10 -10z"/>
<path d="M230 1195 c0 -14 2 -25 4 -25 2 0 11 -3 20 -6 24 -9 20 28 -4 44 -18
11 -20 10 -20 -13z"/>
<path d="M70 1200 c8 -5 20 -10 25 -10 6 0 3 5 -5 10 -8 5 -19 10 -25 10 -5 0
-3 -5 5 -10z"/>
<path d="M175 1180 c-3 -5 -1 -10 4 -10 6 0 11 5 11 10 0 6 -2 10 -4 10 -3 0
-8 -4 -11 -10z"/>
<path d="M130 1175 c0 -2 10 -10 23 -16 20 -11 21 -11 8 4 -13 16 -31 23 -31
12z"/>
<path d="M2140 1132 c0 -5 -11 -14 -24 -20 -32 -14 -42 -88 -15 -116 25 -27
69 -15 69 19 0 13 -7 28 -16 33 -9 5 -14 14 -10 21 10 16 26 14 26 -4 0 -13 4
-14 20 -5 20 11 28 50 10 50 -5 0 -10 -5 -10 -11 0 -5 -4 -7 -10 -4 -5 3 -10
15 -10 26 0 10 -7 19 -15 19 -8 0 -15 -4 -15 -8z"/>
<path d="M2252 1080 c0 -14 2 -19 5 -12 2 6 2 18 0 25 -3 6 -5 1 -5 -13z"/>
<path d="M28 1083 c7 -3 16 -2 19 1 4 3 -2 6 -13 5 -11 0 -14 -3 -6 -6z"/>
<path d="M160 1076 c0 -2 7 -6 15 -10 8 -3 15 -1 15 4 0 6 -7 10 -15 10 -8 0
-15 -2 -15 -4z"/>
<path d="M310 1055 c0 -8 -7 -15 -16 -15 -9 0 -18 -9 -21 -20 -4 -16 -9 -18
-24 -9 -16 8 -19 6 -19 -10 0 -27 38 -48 46 -26 4 10 13 13 25 10 13 -5 19 -1
19 10 0 11 5 15 15 11 8 -3 15 -2 16 2 0 4 2 15 4 25 2 9 -5 22 -15 27 -25 13
-30 13 -30 -5z"/>
<path d="M170 1030 c0 -5 5 -10 10 -10 6 0 10 5 10 10 0 6 -4 10 -10 10 -5 0
-10 -4 -10 -10z"/>
<path d="M1567 1003 c-13 -13 -7 -32 8 -27 8 4 15 12 15 20 0 15 -12 19 -23 7z"/>
<path d="M182 980 c0 -14 2 -19 5 -12 2 6 2 18 0 25 -3 6 -5 1 -5 -13z"/>
<path d="M2252 980 c0 -14 2 -19 5 -12 2 6 2 18 0 25 -3 6 -5 1 -5 -13z"/>
<path d="M335 980 c3 -5 8 -10 11 -10 2 0 4 5 4 10 0 6 -5 10 -11 10 -5 0 -7
-4 -4 -10z"/>
<path d="M396 958 c10 -33 36 -48 49 -28 6 10 -29 50 -46 50 -6 0 -8 -9 -3
-22z"/>
<path d="M2028 963 c-11 -3 -18 -14 -18 -28 0 -14 -14 -35 -35 -53 -30 -27
-32 -32 -16 -37 10 -3 26 -3 35 1 26 10 19 -23 -9 -42 -14 -9 -25 -26 -25 -39
0 -12 -7 -28 -15 -35 -16 -13 -21 -50 -6 -50 20 0 60 42 55 58 -5 16 -5 16 9
0 12 -15 17 -16 32 -4 14 10 17 21 12 50 -5 30 -2 40 19 60 33 30 31 89 -3 94
-14 2 -20 8 -16 18 3 8 4 13 2 13 -2 -1 -12 -3 -21 -6z m-1 -175 c-3 -8 -6 -5
-6 6 -1 11 2 17 5 13 3 -3 4 -12 1 -19z"/>
<path d="M182 930 c0 -14 2 -19 5 -12 2 6 2 18 0 25 -3 6 -5 1 -5 -13z"/>
<path d="M2252 910 c0 -19 2 -27 5 -17 2 9 2 25 0 35 -3 9 -5 1 -5 -18z"/>
<path d="M2285 880 c-3 -5 -1 -10 4 -10 6 0 11 5 11 10 0 6 -2 10 -4 10 -3 0
-8 -4 -11 -10z"/>
<path d="M181 864 c0 -11 3 -14 6 -6 3 7 2 16 -1 19 -3 4 -6 -2 -5 -13z"/>
<path d="M1852 850 c-7 -12 -8 -20 -2 -20 5 0 10 5 10 11 0 6 7 9 14 6 10 -4
13 -1 9 9 -7 19 -16 18 -31 -6z"/>
<path d="M1888 795 c-34 -29 -34 -31 -6 -38 28 -8 48 9 48 39 0 30 -8 30 -42
-1z"/>
<path d="M2305 790 c-3 -5 -2 -10 4 -10 5 0 13 5 16 10 3 6 2 10 -4 10 -5 0
-13 -4 -16 -10z"/>
<path d="M2257 773 c-4 -3 -7 -38 -7 -78 0 -42 -5 -78 -12 -87 -7 -9 -74 -48
-148 -86 -74 -38 -169 -88 -210 -111 l-75 -40 41 -1 c30 0 47 -6 64 -25 19
-21 33 -25 76 -25 l53 0 70 78 c70 76 138 172 123 172 -4 0 -13 -5 -20 -12 -9
-9 -12 -9 -12 -1 0 7 9 15 20 18 27 9 74 71 64 86 -4 7 -3 10 2 7 5 -3 16 10
25 28 16 32 16 34 -2 34 -11 0 -19 4 -19 10 0 5 -7 7 -15 4 -18 -7 -20 7 -3
24 7 7 8 12 2 12 -6 0 -14 -3 -17 -7z m18 -53 c3 -5 1 -10 -4 -10 -6 0 -11 5
-11 10 0 6 2 10 4 10 3 0 8 -4 11 -10z"/>
<path d="M1697 733 c-4 -3 -7 -13 -7 -22 1 -13 3 -13 11 2 11 19 8 33 -4 20z"/>
<path d="M230 688 c0 -29 3 -38 9 -29 5 8 16 11 26 7 13 -5 16 -2 11 10 -3 8
-6 19 -6 22 0 4 -9 13 -20 20 -19 11 -20 10 -20 -30z"/>
<path d="M170 649 c0 -5 5 -7 10 -4 6 3 10 8 10 11 0 2 -4 4 -10 4 -5 0 -10
-5 -10 -11z"/>
<path d="M176 622 c-3 -5 1 -9 9 -9 8 0 12 4 9 9 -3 4 -7 8 -9 8 -2 0 -6 -4
-9 -8z"/>
<path d="M290 620 c0 -5 5 -10 11 -10 5 0 7 5 4 10 -3 6 -8 10 -11 10 -2 0 -4
-4 -4 -10z"/>
<path d="M214 583 c2 -9 8 -18 15 -19 6 -1 7 0 2 2 -6 3 -7 12 -4 20 3 8 1 14
-5 14 -6 0 -9 -8 -8 -17z"/>
<path d="M253 533 c9 -2 23 -2 30 0 6 3 -1 5 -18 5 -16 0 -22 -2 -12 -5z"/>
<path d="M326 533 c-3 -4 8 -13 25 -20 41 -17 50 -9 11 11 -16 8 -32 12 -36 9z"/>
<path d="M400 495 c0 -1 11 -10 25 -19 19 -13 23 -13 19 -2 -4 12 -44 31 -44
21z"/>
<path d="M395 335 c189 -176 433 -286 707 -319 198 -24 412 12 624 105 146 64
149 71 24 63 -58 -4 -152 -8 -210 -9 l-105 -3 -92 -51 c-96 -53 -134 -61 -171
-35 -12 8 -66 38 -120 66 -53 28 -102 54 -107 59 -6 4 -49 27 -95 52 -47 24
-111 58 -143 77 -55 31 -65 33 -165 35 -59 1 -129 5 -157 9 l-50 7 60 -56z"/>
</g>
</svg>
